<?xml version="1.0" encoding="UTF-8" standalone="no"?>
<!DOCTYPE svg PUBLIC "-//W3C//DTD SVG 1.1//EN"
 "http://www.w3.org/Graphics/SVG/1.1/DTD/svg11.dtd">
<!-- Generated by graphviz version 2.38.0 (20140413.2041)
 -->
<!-- Title: G Pages: 1 -->
<svg width="1040pt" height="3200pt"
 viewBox="0.00 0.00 1040.08 3200.00" xmlns="http://www.w3.org/2000/svg" xmlns:xlink="http://www.w3.org/1999/xlink">
<g id="graph0" class="graph" transform="scale(1 1) rotate(0) translate(4 3196)">
<title>G</title>
<polygon fill="white" stroke="none" points="-4,4 -4,-3196 1036.08,-3196 1036.08,4 -4,4"/>
<g id="clust1" class="cluster"><title>cluster_Global</title>
<path fill="none" stroke="gray" d="M20,-368C20,-368 1012.08,-368 1012.08,-368 1018.08,-368 1024.08,-374 1024.08,-380 1024.08,-380 1024.08,-3172 1024.08,-3172 1024.08,-3178 1018.08,-3184 1012.08,-3184 1012.08,-3184 20,-3184 20,-3184 14,-3184 8,-3178 8,-3172 8,-3172 8,-380 8,-380 8,-374 14,-368 20,-368"/>
<text text-anchor="middle" x="516.038" y="-3171.2" font-family="Times,serif" font-size="11.00" fill="gray">Global</text>
</g>
<g id="clust2" class="cluster"><title>cluster_\App</title>
<path fill="none" stroke="gray" d="M573.684,-376C573.684,-376 1004.08,-376 1004.08,-376 1010.08,-376 1016.08,-382 1016.08,-388 1016.08,-388 1016.08,-1892 1016.08,-1892 1016.08,-1898 1010.08,-1904 1004.08,-1904 1004.08,-1904 573.684,-1904 573.684,-1904 567.684,-1904 561.684,-1898 561.684,-1892 561.684,-1892 561.684,-388 561.684,-388 561.684,-382 567.684,-376 573.684,-376"/>
<text text-anchor="middle" x="788.88" y="-1891.2" font-family="Times,serif" font-size="11.00" fill="gray">App</text>
</g>
<g id="clust3" class="cluster"><title>cluster_\App\Http</title>
<path fill="none" stroke="gray" d="M581.684,-1590C581.684,-1590 963.576,-1590 963.576,-1590 969.576,-1590 975.576,-1596 975.576,-1602 975.576,-1602 975.576,-1864 975.576,-1864 975.576,-1870 969.576,-1876 963.576,-1876 963.576,-1876 581.684,-1876 581.684,-1876 575.684,-1876 569.684,-1870 569.684,-1864 569.684,-1864 569.684,-1602 569.684,-1602 569.684,-1596 575.684,-1590 581.684,-1590"/>
<text text-anchor="middle" x="772.63" y="-1863.2" font-family="Times,serif" font-size="11.00" fill="gray">Http</text>
</g>
<g id="clust4" class="cluster"><title>cluster_\App\Http\Middleware</title>
<path fill="none" stroke="gray" d="M839.076,-1598C839.076,-1598 949.076,-1598 949.076,-1598 955.076,-1598 961.076,-1604 961.076,-1610 961.076,-1610 961.076,-1712 961.076,-1712 961.076,-1718 955.076,-1724 949.076,-1724 949.076,-1724 839.076,-1724 839.076,-1724 833.076,-1724 827.076,-1718 827.076,-1712 827.076,-1712 827.076,-1610 827.076,-1610 827.076,-1604 833.076,-1598 839.076,-1598"/>
<text text-anchor="middle" x="894.076" y="-1711.2" font-family="Times,serif" font-size="11.00" fill="gray">Middleware</text>
</g>
<g id="clust5" class="cluster"><title>cluster_\App\Http\Controllers</title>
<path fill="none" stroke="gray" d="M589.684,-1732C589.684,-1732 955.576,-1732 955.576,-1732 961.576,-1732 967.576,-1738 967.576,-1744 967.576,-1744 967.576,-1792 967.576,-1792 967.576,-1798 961.576,-1804 955.576,-1804 955.576,-1804 589.684,-1804 589.684,-1804 583.684,-1804 577.684,-1798 577.684,-1792 577.684,-1792 577.684,-1744 577.684,-1744 577.684,-1738 583.684,-1732 589.684,-1732"/>
<text text-anchor="middle" x="772.63" y="-1791.2" font-family="Times,serif" font-size="11.00" fill="gray">Controllers</text>
</g>
<g id="clust6" class="cluster"><title>cluster_\App\Jobs</title>
<path fill="none" stroke="gray" d="M842.576,-1510C842.576,-1510 945.576,-1510 945.576,-1510 951.576,-1510 957.576,-1516 957.576,-1522 957.576,-1522 957.576,-1570 957.576,-1570 957.576,-1576 951.576,-1582 945.576,-1582 945.576,-1582 842.576,-1582 842.576,-1582 836.576,-1582 830.576,-1576 830.576,-1570 830.576,-1570 830.576,-1522 830.576,-1522 830.576,-1516 836.576,-1510 842.576,-1510"/>
<text text-anchor="middle" x="894.076" y="-1569.2" font-family="Times,serif" font-size="11.00" fill="gray">Jobs</text>
</g>
<g id="clust7" class="cluster"><title>cluster_\App\WebsiteCrawler</title>
<path fill="none" stroke="gray" d="M806.076,-1100C806.076,-1100 982.076,-1100 982.076,-1100 988.076,-1100 994.076,-1106 994.076,-1112 994.076,-1112 994.076,-1490 994.076,-1490 994.076,-1496 988.076,-1502 982.076,-1502 982.076,-1502 806.076,-1502 806.076,-1502 800.076,-1502 794.076,-1496 794.076,-1490 794.076,-1490 794.076,-1112 794.076,-1112 794.076,-1106 800.076,-1100 806.076,-1100"/>
<text text-anchor="middle" x="894.076" y="-1489.2" font-family="Times,serif" font-size="11.00" fill="gray">WebsiteCrawler</text>
</g>
<g id="clust8" class="cluster"><title>cluster_\App\WebsiteCrawler\Processor</title>
<path fill="none" stroke="gray" d="M842.576,-1348C842.576,-1348 945.576,-1348 945.576,-1348 951.576,-1348 957.576,-1354 957.576,-1360 957.576,-1360 957.576,-1462 957.576,-1462 957.576,-1468 951.576,-1474 945.576,-1474 945.576,-1474 842.576,-1474 842.576,-1474 836.576,-1474 830.576,-1468 830.576,-1462 830.576,-1462 830.576,-1360 830.576,-1360 830.576,-1354 836.576,-1348 842.576,-1348"/>
<text text-anchor="middle" x="894.076" y="-1461.2" font-family="Times,serif" font-size="11.00" fill="gray">Processor</text>
</g>
<g id="clust9" class="cluster"><title>cluster_\App\WebsiteCrawler\Enqueue</title>
<path fill="none" stroke="gray" d="M814.076,-1232C814.076,-1232 974.076,-1232 974.076,-1232 980.076,-1232 986.076,-1238 986.076,-1244 986.076,-1244 986.076,-1328 986.076,-1328 986.076,-1334 980.076,-1340 974.076,-1340 974.076,-1340 814.076,-1340 814.076,-1340 808.076,-1340 802.076,-1334 802.076,-1328 802.076,-1328 802.076,-1244 802.076,-1244 802.076,-1238 808.076,-1232 814.076,-1232"/>
<text text-anchor="middle" x="894.076" y="-1327.2" font-family="Times,serif" font-size="11.00" fill="gray">Enqueue</text>
</g>
<g id="clust10" class="cluster"><title>cluster_\App\WebsiteCrawler\Enqueue\Processor</title>
<path fill="none" stroke="gray" d="M822.076,-1240C822.076,-1240 966.076,-1240 966.076,-1240 972.076,-1240 978.076,-1246 978.076,-1252 978.076,-1252 978.076,-1300 978.076,-1300 978.076,-1306 972.076,-1312 966.076,-1312 966.076,-1312 822.076,-1312 822.076,-1312 816.076,-1312 810.076,-1306 810.076,-1300 810.076,-1300 810.076,-1252 810.076,-1252 810.076,-1246 816.076,-1240 822.076,-1240"/>
<text text-anchor="middle" x="894.076" y="-1299.2" font-family="Times,serif" font-size="11.00" fill="gray">Processor</text>
</g>
<g id="clust11" class="cluster"><title>cluster_\App\WebsiteCrawler\Executor</title>
<path fill="none" stroke="gray" d="M829.076,-1108C829.076,-1108 959.076,-1108 959.076,-1108 965.076,-1108 971.076,-1114 971.076,-1120 971.076,-1120 971.076,-1168 971.076,-1168 971.076,-1174 965.076,-1180 959.076,-1180 959.076,-1180 829.076,-1180 829.076,-1180 823.076,-1180 817.076,-1174 817.076,-1168 817.076,-1168 817.076,-1120 817.076,-1120 817.076,-1114 823.076,-1108 829.076,-1108"/>
<text text-anchor="middle" x="894.076" y="-1167.2" font-family="Times,serif" font-size="11.00" fill="gray">Executor</text>
</g>
<g id="clust12" class="cluster"><title>cluster_\App\Providers</title>
<path fill="none" stroke="gray" d="M792.076,-804C792.076,-804 996.076,-804 996.076,-804 1002.08,-804 1008.08,-810 1008.08,-816 1008.08,-816 1008.08,-1080 1008.08,-1080 1008.08,-1086 1002.08,-1092 996.076,-1092 996.076,-1092 792.076,-1092 792.076,-1092 786.076,-1092 780.076,-1086 780.076,-1080 780.076,-1080 780.076,-816 780.076,-816 780.076,-810 786.076,-804 792.076,-804"/>
<text text-anchor="middle" x="894.076" y="-1079.2" font-family="Times,serif" font-size="11.00" fill="gray">Providers</text>
</g>
<g id="clust13" class="cluster"><title>cluster_\App\Listeners</title>
<path fill="none" stroke="gray" d="M839.076,-724C839.076,-724 949.076,-724 949.076,-724 955.076,-724 961.076,-730 961.076,-736 961.076,-736 961.076,-784 961.076,-784 961.076,-790 955.076,-796 949.076,-796 949.076,-796 839.076,-796 839.076,-796 833.076,-796 827.076,-790 827.076,-784 827.076,-784 827.076,-736 827.076,-736 827.076,-730 833.076,-724 839.076,-724"/>
<text text-anchor="middle" x="894.076" y="-783.2" font-family="Times,serif" font-size="11.00" fill="gray">Listeners</text>
</g>
<g id="clust14" class="cluster"><title>cluster_\App\Events</title>
<path fill="none" stroke="gray" d="M839.076,-644C839.076,-644 949.076,-644 949.076,-644 955.076,-644 961.076,-650 961.076,-656 961.076,-656 961.076,-704 961.076,-704 961.076,-710 955.076,-716 949.076,-716 949.076,-716 839.076,-716 839.076,-716 833.076,-716 827.076,-710 827.076,-704 827.076,-704 827.076,-656 827.076,-656 827.076,-650 833.076,-644 839.076,-644"/>
<text text-anchor="middle" x="894.076" y="-703.2" font-family="Times,serif" font-size="11.00" fill="gray">Events</text>
</g>
<g id="clust15" class="cluster"><title>cluster_\App\Exceptions</title>
<path fill="none" stroke="gray" d="M866.076,-484C866.076,-484 922.076,-484 922.076,-484 928.076,-484 934.076,-490 934.076,-496 934.076,-496 934.076,-544 934.076,-544 934.076,-550 928.076,-556 922.076,-556 922.076,-556 866.076,-556 866.076,-556 860.076,-556 854.076,-550 854.076,-544 854.076,-544 854.076,-496 854.076,-496 854.076,-490 860.076,-484 866.076,-484"/>
<text text-anchor="middle" x="894.076" y="-543.2" font-family="Times,serif" font-size="11.00" fill="gray">Exceptions</text>
</g>
<g id="clust16" class="cluster"><title>cluster_\App\Console</title>
<path fill="none" stroke="gray" d="M869.576,-564C869.576,-564 918.576,-564 918.576,-564 924.576,-564 930.576,-570 930.576,-576 930.576,-576 930.576,-624 930.576,-624 930.576,-630 924.576,-636 918.576,-636 918.576,-636 869.576,-636 869.576,-636 863.576,-636 857.576,-630 857.576,-624 857.576,-624 857.576,-576 857.576,-576 857.576,-570 863.576,-564 869.576,-564"/>
<text text-anchor="middle" x="894.076" y="-623.2" font-family="Times,serif" font-size="11.00" fill="gray">Console</text>
</g>
<g id="clust17" class="cluster"><title>cluster_\WebsiteCrawler</title>
<path fill="none" stroke="gray" d="M176.292,-2116C176.292,-2116 717.684,-2116 717.684,-2116 723.684,-2116 729.684,-2122 729.684,-2128 729.684,-2128 729.684,-3144 729.684,-3144 729.684,-3150 723.684,-3156 717.684,-3156 717.684,-3156 176.292,-3156 176.292,-3156 170.292,-3156 164.292,-3150 164.292,-3144 164.292,-3144 164.292,-2128 164.292,-2128 164.292,-2122 170.292,-2116 176.292,-2116"/>
<text text-anchor="middle" x="446.988" y="-3143.2" font-family="Times,serif" font-size="11.00" fill="gray">WebsiteCrawler</text>
</g>
<g id="clust18" class="cluster"><title>cluster_\WebsiteCrawler\Crawler</title>
<path fill="none" stroke="gray" d="M339.792,-3002C339.792,-3002 672.684,-3002 672.684,-3002 678.684,-3002 684.684,-3008 684.684,-3014 684.684,-3014 684.684,-3116 684.684,-3116 684.684,-3122 678.684,-3128 672.684,-3128 672.684,-3128 339.792,-3128 339.792,-3128 333.792,-3128 327.792,-3122 327.792,-3116 327.792,-3116 327.792,-3014 327.792,-3014 327.792,-3008 333.792,-3002 339.792,-3002"/>
<text text-anchor="middle" x="506.238" y="-3115.2" font-family="Times,serif" font-size="11.00" fill="gray">Crawler</text>
</g>
<g id="clust19" class="cluster"><title>cluster_\WebsiteCrawler\Exception</title>
<path fill="none" stroke="gray" d="M184.292,-2922C184.292,-2922 706.184,-2922 706.184,-2922 712.184,-2922 718.184,-2928 718.184,-2934 718.184,-2934 718.184,-2982 718.184,-2982 718.184,-2988 712.184,-2994 706.184,-2994 706.184,-2994 184.292,-2994 184.292,-2994 178.292,-2994 172.292,-2988 172.292,-2982 172.292,-2982 172.292,-2934 172.292,-2934 172.292,-2928 178.292,-2922 184.292,-2922"/>
<text text-anchor="middle" x="445.238" y="-2981.2" font-family="Times,serif" font-size="11.00" fill="gray">Exception</text>
</g>
<g id="clust20" class="cluster"><title>cluster_\WebsiteCrawler\Executor</title>
<path fill="none" stroke="gray" d="M336.792,-2412C336.792,-2412 709.684,-2412 709.684,-2412 715.684,-2412 721.684,-2418 721.684,-2424 721.684,-2424 721.684,-2580 721.684,-2580 721.684,-2586 715.684,-2592 709.684,-2592 709.684,-2592 336.792,-2592 336.792,-2592 330.792,-2592 324.792,-2586 324.792,-2580 324.792,-2580 324.792,-2424 324.792,-2424 324.792,-2418 330.792,-2412 336.792,-2412"/>
<text text-anchor="middle" x="523.238" y="-2579.2" font-family="Times,serif" font-size="11.00" fill="gray">Executor</text>
</g>
<g id="clust21" class="cluster"><title>cluster_\WebsiteCrawler\Filter</title>
<path fill="none" stroke="gray" d="M343.292,-2734C343.292,-2734 669.184,-2734 669.184,-2734 675.184,-2734 681.184,-2740 681.184,-2746 681.184,-2746 681.184,-2902 681.184,-2902 681.184,-2908 675.184,-2914 669.184,-2914 669.184,-2914 343.292,-2914 343.292,-2914 337.292,-2914 331.292,-2908 331.292,-2902 331.292,-2902 331.292,-2746 331.292,-2746 331.292,-2740 337.292,-2734 343.292,-2734"/>
<text text-anchor="middle" x="506.238" y="-2901.2" font-family="Times,serif" font-size="11.00" fill="gray">Filter</text>
</g>
<g id="clust22" class="cluster"><title>cluster_\WebsiteCrawler\Processor</title>
<path fill="none" stroke="gray" d="M333.292,-2278C333.292,-2278 679.184,-2278 679.184,-2278 685.184,-2278 691.184,-2284 691.184,-2290 691.184,-2290 691.184,-2392 691.184,-2392 691.184,-2398 685.184,-2404 679.184,-2404 679.184,-2404 333.292,-2404 333.292,-2404 327.292,-2404 321.292,-2398 321.292,-2392 321.292,-2392 321.292,-2290 321.292,-2290 321.292,-2284 327.292,-2278 333.292,-2278"/>
<text text-anchor="middle" x="506.238" y="-2391.2" font-family="Times,serif" font-size="11.00" fill="gray">Processor</text>
</g>
<g id="clust23" class="cluster"><title>cluster_\WebsiteCrawler\UriMap</title>
<path fill="none" stroke="gray" d="M343.292,-2600C343.292,-2600 692.684,-2600 692.684,-2600 698.684,-2600 704.684,-2606 704.684,-2612 704.684,-2612 704.684,-2714 704.684,-2714 704.684,-2720 698.684,-2726 692.684,-2726 692.684,-2726 343.292,-2726 343.292,-2726 337.292,-2726 331.292,-2720 331.292,-2714 331.292,-2714 331.292,-2612 331.292,-2612 331.292,-2606 337.292,-2600 343.292,-2600"/>
<text text-anchor="middle" x="517.988" y="-2713.2" font-family="Times,serif" font-size="11.00" fill="gray">UriMap</text>
</g>
<g id="clust24" class="cluster"><title>cluster_Global\Illuminate</title>
<path fill="none" stroke="gray" d="M581.237,-1912C581.237,-1912 674.131,-1912 674.131,-1912 680.131,-1912 686.131,-1918 686.131,-1924 686.131,-1924 686.131,-2044 686.131,-2044 686.131,-2050 680.131,-2056 674.131,-2056 674.131,-2056 581.237,-2056 581.237,-2056 575.237,-2056 569.237,-2050 569.237,-2044 569.237,-2044 569.237,-1924 569.237,-1924 569.237,-1918 575.237,-1912 581.237,-1912"/>
<text text-anchor="middle" x="627.684" y="-2043.2" font-family="Times,serif" font-size="11.00" fill="gray">Illuminate</text>
</g>
<g id="clust25" class="cluster"><title>cluster_Global\Illuminate\Foundation</title>
<path fill="none" stroke="gray" d="M589.237,-1920C589.237,-1920 666.131,-1920 666.131,-1920 672.131,-1920 678.131,-1926 678.131,-1932 678.131,-1932 678.131,-2016 678.131,-2016 678.131,-2022 672.131,-2028 666.131,-2028 666.131,-2028 589.237,-2028 589.237,-2028 583.237,-2028 577.237,-2022 577.237,-2016 577.237,-2016 577.237,-1932 577.237,-1932 577.237,-1926 583.237,-1920 589.237,-1920"/>
<text text-anchor="middle" x="627.684" y="-2015.2" font-family="Times,serif" font-size="11.00" fill="gray">Foundation</text>
</g>
<g id="clust26" class="cluster"><title>cluster_Global\Illuminate\Foundation\Console</title>
<path fill="none" stroke="gray" d="M597.237,-1928C597.237,-1928 658.131,-1928 658.131,-1928 664.131,-1928 670.131,-1934 670.131,-1940 670.131,-1940 670.131,-1988 670.131,-1988 670.131,-1994 664.131,-2000 658.131,-2000 658.131,-2000 597.237,-2000 597.237,-2000 591.237,-2000 585.237,-1994 585.237,-1988 585.237,-1988 585.237,-1940 585.237,-1940 585.237,-1934 591.237,-1928 597.237,-1928"/>
<text text-anchor="middle" x="627.684" y="-1987.2" font-family="Times,serif" font-size="11.00" fill="gray">Console</text>
</g>
<!-- \\App\\Http\\Middleware\\EncryptCookies -->
<g id="node1" class="node"><title>\\App\\Http\\Middleware\\EncryptCookies</title>
<polygon fill="none" stroke="black" points="949.576,-1696 838.576,-1696 838.576,-1660 949.576,-1660 949.576,-1696"/>
<text text-anchor="middle" x="894.076" y="-1675.2" font-family="Courier,monospace" font-size="11.00">EncryptCookies</text>
</g>
<!-- EncryptCookies -->
<g id="node48" class="node"><title>EncryptCookies</title>
<ellipse fill="none" stroke="black" cx="627.684" cy="-342" rx="67.6881" ry="18"/>
<text text-anchor="middle" x="627.684" y="-338.3" font-family="Times,serif" font-size="14.00">EncryptCookies</text>
</g>
<!-- \\App\\Http\\Middleware\\EncryptCookies&#45;&gt;EncryptCookies -->
<g id="edge1" class="edge"><title>\\App\\Http\\Middleware\\EncryptCookies&#45;&gt;EncryptCookies</title>
<path fill="none" stroke="black" d="M838.522,-1677.78C817.319,-1674.78 794.667,-1667.45 780.076,-1651 691.827,-1551.53 639.001,-553.029 630.046,-370.551"/>
<polygon fill="none" stroke="black" points="633.534,-370.222 629.552,-360.404 626.542,-370.562 633.534,-370.222"/>
</g>
<!-- \\App\\Http\\Middleware\\VerifyCsrfToken -->
<g id="node2" class="node"><title>\\App\\Http\\Middleware\\VerifyCsrfToken</title>
<polygon fill="none" stroke="black" points="953.076,-1642 835.076,-1642 835.076,-1606 953.076,-1606 953.076,-1642"/>
<text text-anchor="middle" x="894.076" y="-1621.2" font-family="Courier,monospace" font-size="11.00">VerifyCsrfToken</text>
</g>
<!-- VerifyCsrfToken -->
<g id="node53" class="node"><title>VerifyCsrfToken</title>
<ellipse fill="none" stroke="black" cx="627.684" cy="-288" rx="71.4873" ry="18"/>
<text text-anchor="middle" x="627.684" y="-284.3" font-family="Times,serif" font-size="14.00">VerifyCsrfToken</text>
</g>
<!-- \\App\\Http\\Middleware\\VerifyCsrfToken&#45;&gt;VerifyCsrfToken -->
<g id="edge13" class="edge"><title>\\App\\Http\\Middleware\\VerifyCsrfToken&#45;&gt;VerifyCsrfToken</title>
<path fill="none" stroke="black" d="M834.817,-1618.01C814.255,-1612.82 793.045,-1603.31 780.076,-1586 695.332,-1472.89 817.959,-425.375 729.684,-315 723.307,-307.027 714.856,-301.254 705.551,-297.099"/>
<polygon fill="none" stroke="black" points="706.597,-293.752 696.006,-293.462 704.104,-300.294 706.597,-293.752"/>
</g>
<!-- \\App\\Http\\Controllers\\Controller -->
<g id="node3" class="node"><title>\\App\\Http\\Controllers\\Controller</title>
<polygon fill="none" stroke="black" points="669.684,-1776 585.684,-1776 585.684,-1740 669.684,-1740 669.684,-1776"/>
<text text-anchor="middle" x="627.684" y="-1755.2" font-family="Courier,monospace" font-size="11.00">Controller</text>
</g>
<!-- Controller -->
<g id="node50" class="node"><title>Controller</title>
<ellipse fill="none" stroke="black" cx="398.292" cy="-342" rx="46.5926" ry="18"/>
<text text-anchor="middle" x="398.292" y="-338.3" font-family="Times,serif" font-size="14.00">Controller</text>
</g>
<!-- \\App\\Http\\Controllers\\Controller&#45;&gt;Controller -->
<g id="edge8" class="edge"><title>\\App\\Http\\Controllers\\Controller&#45;&gt;Controller</title>
<path fill="none" stroke="black" d="M623.767,-1739.84C599.648,-1589.64 433.331,-553.969 403.778,-369.934"/>
<polygon fill="none" stroke="black" points="407.218,-369.282 402.177,-359.964 400.306,-370.392 407.218,-369.282"/>
</g>
<!-- \\App\\Http\\Controllers\\WebsiteController -->
<g id="node4" class="node"><title>\\App\\Http\\Controllers\\WebsiteController</title>
<polygon fill="none" stroke="black" points="959.576,-1776 828.576,-1776 828.576,-1740 959.576,-1740 959.576,-1776"/>
<text text-anchor="middle" x="894.076" y="-1755.2" font-family="Courier,monospace" font-size="11.00">WebsiteController</text>
</g>
<!-- \\App\\Http\\Controllers\\WebsiteController&#45;&gt;\\App\\Http\\Controllers\\Controller -->
<g id="edge11" class="edge"><title>\\App\\Http\\Controllers\\WebsiteController&#45;&gt;\\App\\Http\\Controllers\\Controller</title>
<path fill="none" stroke="black" d="M828.399,-1758C782.781,-1758 722.5,-1758 680.142,-1758"/>
<polygon fill="none" stroke="black" points="680.049,-1754.5 670.049,-1758 680.049,-1761.5 680.049,-1754.5"/>
</g>
<!-- \\App\\Http\\Kernel -->
<g id="node5" class="node"><title>\\App\\Http\\Kernel</title>
<polygon fill="none" stroke="black" points="922.576,-1848 865.576,-1848 865.576,-1812 922.576,-1812 922.576,-1848"/>
<text text-anchor="middle" x="894.076" y="-1827.2" font-family="Courier,monospace" font-size="11.00">Kernel</text>
</g>
<!-- Kernel -->
<g id="node46" class="node"><title>Kernel</title>
<ellipse fill="none" stroke="black" cx="627.684" cy="-1954" rx="34.394" ry="18"/>
<text text-anchor="middle" x="627.684" y="-1950.3" font-family="Times,serif" font-size="14.00" fill="gray">Kernel</text>
</g>
<!-- \\App\\Http\\Kernel&#45;&gt;Kernel -->
<g id="edge14" class="edge"><title>\\App\\Http\\Kernel&#45;&gt;Kernel</title>
<path fill="none" stroke="black" d="M865.281,-1843.04C816.604,-1865.87 716.077,-1913.01 663.092,-1937.86"/>
<polygon fill="none" stroke="black" points="661.343,-1934.82 653.775,-1942.23 664.315,-1941.15 661.343,-1934.82"/>
</g>
<!-- \\App\\Jobs\\ProcessCrawler -->
<g id="node6" class="node"><title>\\App\\Jobs\\ProcessCrawler</title>
<polygon fill="none" stroke="black" points="949.576,-1554 838.576,-1554 838.576,-1518 949.576,-1518 949.576,-1554"/>
<text text-anchor="middle" x="894.076" y="-1533.2" font-family="Courier,monospace" font-size="11.00">ProcessCrawler</text>
</g>
<!-- \\App\\WebsiteCrawler\\Processor\\ImageProcessor -->
<g id="node7" class="node"><title>\\App\\WebsiteCrawler\\Processor\\ImageProcessor</title>
<polygon fill="none" stroke="black" points="949.576,-1392 838.576,-1392 838.576,-1356 949.576,-1356 949.576,-1392"/>
<text text-anchor="middle" x="894.076" y="-1371.2" font-family="Courier,monospace" font-size="11.00">ImageProcessor</text>
</g>
<!-- \\WebsiteCrawler\\Processor\\ProcessorInterface -->
<g id="node38" class="node"><title>\\WebsiteCrawler\\Processor\\ProcessorInterface</title>
<polygon fill="none" stroke="black" points="467.292,-2322 329.292,-2322 329.292,-2286 467.292,-2286 467.292,-2322"/>
<text text-anchor="middle" x="398.292" y="-2301.2" font-family="Courier,monospace" font-size="11.00">ProcessorInterface</text>
</g>
<!-- \\App\\WebsiteCrawler\\Processor\\ImageProcessor&#45;&gt;\\WebsiteCrawler\\Processor\\ProcessorInterface -->
<g id="edge6" class="edge"><title>\\App\\WebsiteCrawler\\Processor\\ImageProcessor&#45;&gt;\\WebsiteCrawler\\Processor\\ProcessorInterface</title>
<path fill="none" stroke="black" stroke-dasharray="1,5" d="M838.554,-1373.95C817.224,-1376.89 794.47,-1384.25 780.076,-1401 692.445,-1502.99 812.154,-1897.79 729.684,-2004 674.757,-2074.74 608.78,-2013.5 539.292,-2070 469.678,-2126.6 426.408,-2227.64 408.628,-2276.31"/>
<polygon fill="none" stroke="black" points="405.284,-2275.26 405.221,-2285.86 411.877,-2277.62 405.284,-2275.26"/>
</g>
<!-- \\App\\WebsiteCrawler\\Processor\\HtmlProcessor -->
<g id="node8" class="node"><title>\\App\\WebsiteCrawler\\Processor\\HtmlProcessor</title>
<polygon fill="none" stroke="black" points="946.076,-1446 842.076,-1446 842.076,-1410 946.076,-1410 946.076,-1446"/>
<text text-anchor="middle" x="894.076" y="-1425.2" font-family="Courier,monospace" font-size="11.00">HtmlProcessor</text>
</g>
<!-- \\App\\WebsiteCrawler\\Processor\\HtmlProcessor&#45;&gt;\\WebsiteCrawler\\Processor\\ProcessorInterface -->
<g id="edge15" class="edge"><title>\\App\\WebsiteCrawler\\Processor\\HtmlProcessor&#45;&gt;\\WebsiteCrawler\\Processor\\ProcessorInterface</title>
<path fill="none" stroke="black" stroke-dasharray="1,5" d="M850.379,-1446.04C825.473,-1458.93 795.925,-1478.82 780.076,-1506 716.695,-1614.7 812.788,-1975.51 729.684,-2070 672.455,-2135.07 611.824,-2064.59 539.292,-2112 475.861,-2153.46 431.377,-2234.28 411.308,-2276.62"/>
<polygon fill="none" stroke="black" points="408.093,-2275.24 407.066,-2285.78 414.445,-2278.18 408.093,-2275.24"/>
</g>
<!-- \\App\\WebsiteCrawler\\Enqueue\\Processor\\UriExecutorProcessor -->
<g id="node9" class="node"><title>\\App\\WebsiteCrawler\\Enqueue\\Processor\\UriExecutorProcessor</title>
<polygon fill="none" stroke="black" points="970.076,-1284 818.076,-1284 818.076,-1248 970.076,-1248 970.076,-1284"/>
<text text-anchor="middle" x="894.076" y="-1263.2" font-family="Courier,monospace" font-size="11.00">UriExecutorProcessor</text>
</g>
<!-- \\App\\WebsiteCrawler\\Executor\\EnqueueUriExecutor -->
<g id="node10" class="node"><title>\\App\\WebsiteCrawler\\Executor\\EnqueueUriExecutor</title>
<polygon fill="none" stroke="black" points="963.076,-1152 825.076,-1152 825.076,-1116 963.076,-1116 963.076,-1152"/>
<text text-anchor="middle" x="894.076" y="-1131.2" font-family="Courier,monospace" font-size="11.00">EnqueueUriExecutor</text>
</g>
<!-- \\WebsiteCrawler\\Executor\\ExecutorInterface -->
<g id="node31" class="node"><title>\\WebsiteCrawler\\Executor\\ExecutorInterface</title>
<polygon fill="none" stroke="black" points="463.792,-2510 332.792,-2510 332.792,-2474 463.792,-2474 463.792,-2510"/>
<text text-anchor="middle" x="398.292" y="-2489.2" font-family="Courier,monospace" font-size="11.00">ExecutorInterface</text>
</g>
<!-- \\App\\WebsiteCrawler\\Executor\\EnqueueUriExecutor&#45;&gt;\\WebsiteCrawler\\Executor\\ExecutorInterface -->
<g id="edge18" class="edge"><title>\\App\\WebsiteCrawler\\Executor\\EnqueueUriExecutor&#45;&gt;\\WebsiteCrawler\\Executor\\ExecutorInterface</title>
<path fill="none" stroke="black" stroke-dasharray="1,5" d="M825.036,-1133.05C808.055,-1136.26 791.462,-1142.99 780.076,-1156 655.751,-1298.06 829.492,-1843.77 729.684,-2004 678.249,-2086.58 597.912,-2034.36 539.292,-2112 457.71,-2220.05 527.346,-2286.66 467.292,-2408 456.661,-2429.48 439.71,-2450.44 425.392,-2466.05"/>
<polygon fill="none" stroke="black" points="422.497,-2464.01 418.192,-2473.7 427.594,-2468.81 422.497,-2464.01"/>
</g>
<!-- \\App\\WebsiteCrawler\\Context -->
<g id="node11" class="node"><title>\\App\\WebsiteCrawler\\Context</title>
<polygon fill="none" stroke="black" points="926.076,-1224 862.076,-1224 862.076,-1188 926.076,-1188 926.076,-1224"/>
<text text-anchor="middle" x="894.076" y="-1203.2" font-family="Courier,monospace" font-size="11.00">Context</text>
</g>
<!-- \\WebsiteCrawler\\Context -->
<g id="node43" class="node"><title>\\WebsiteCrawler\\Context</title>
<polygon fill="none" stroke="black" points="659.684,-2268 595.684,-2268 595.684,-2232 659.684,-2232 659.684,-2268"/>
<text text-anchor="middle" x="627.684" y="-2247.2" font-family="Courier,monospace" font-size="11.00">Context</text>
</g>
<!-- \\App\\WebsiteCrawler\\Context&#45;&gt;\\WebsiteCrawler\\Context -->
<g id="edge17" class="edge"><title>\\App\\WebsiteCrawler\\Context&#45;&gt;\\WebsiteCrawler\\Context</title>
<path fill="none" stroke="black" d="M861.899,-1204.96C835.698,-1205.95 799.504,-1212.03 780.076,-1236 641.784,-1406.61 867.829,-2052.27 729.684,-2223 715.457,-2240.58 691.15,-2247.45 669.947,-2249.86"/>
<polygon fill="none" stroke="black" points="669.515,-2246.38 659.846,-2250.71 670.105,-2253.36 669.515,-2246.38"/>
</g>
<!-- \\App\\Providers\\EventServiceProvider -->
<g id="node12" class="node"><title>\\App\\Providers\\EventServiceProvider</title>
<polygon fill="none" stroke="black" points="970.076,-1064 818.076,-1064 818.076,-1028 970.076,-1028 970.076,-1064"/>
<text text-anchor="middle" x="894.076" y="-1043.2" font-family="Courier,monospace" font-size="11.00">EventServiceProvider</text>
</g>
<!-- EventServiceProvider -->
<g id="node49" class="node"><title>EventServiceProvider</title>
<ellipse fill="none" stroke="black" cx="627.684" cy="-234" rx="87.9851" ry="18"/>
<text text-anchor="middle" x="627.684" y="-230.3" font-family="Times,serif" font-size="14.00">EventServiceProvider</text>
</g>
<!-- \\App\\Providers\\EventServiceProvider&#45;&gt;EventServiceProvider -->
<g id="edge7" class="edge"><title>\\App\\Providers\\EventServiceProvider&#45;&gt;EventServiceProvider</title>
<path fill="none" stroke="black" d="M817.837,-1041.84C803.394,-1037.57 789.772,-1030.48 780.076,-1019 671.151,-890.026 836.879,-391.416 729.684,-261 725.193,-255.536 719.729,-251.11 713.692,-247.532"/>
<polygon fill="none" stroke="black" points="714.987,-244.265 704.484,-242.875 711.828,-250.512 714.987,-244.265"/>
</g>
<!-- \\App\\Providers\\WebsiteCrawlerServiceProvider -->
<g id="node13" class="node"><title>\\App\\Providers\\WebsiteCrawlerServiceProvider</title>
<polygon fill="none" stroke="black" points="1000.08,-956 788.076,-956 788.076,-920 1000.08,-920 1000.08,-956"/>
<text text-anchor="middle" x="894.076" y="-935.2" font-family="Courier,monospace" font-size="11.00">WebsiteCrawlerServiceProvider</text>
</g>
<!-- ServiceProvider -->
<g id="node51" class="node"><title>ServiceProvider</title>
<ellipse fill="none" stroke="black" cx="627.684" cy="-180" rx="67.6881" ry="18"/>
<text text-anchor="middle" x="627.684" y="-176.3" font-family="Times,serif" font-size="14.00">ServiceProvider</text>
</g>
<!-- \\App\\Providers\\WebsiteCrawlerServiceProvider&#45;&gt;ServiceProvider -->
<g id="edge9" class="edge"><title>\\App\\Providers\\WebsiteCrawlerServiceProvider&#45;&gt;ServiceProvider</title>
<path fill="none" stroke="black" d="M789.162,-919.679C785.869,-917.11 782.817,-914.229 780.076,-911 678.572,-791.429 829.584,-327.914 729.684,-207 722.559,-198.376 713.01,-192.34 702.618,-188.145"/>
<polygon fill="none" stroke="black" points="703.477,-184.739 692.883,-184.788 701.196,-191.357 703.477,-184.739"/>
</g>
<!-- \\App\\Providers\\AppServiceProvider -->
<g id="node14" class="node"><title>\\App\\Providers\\AppServiceProvider</title>
<polygon fill="none" stroke="black" points="963.076,-902 825.076,-902 825.076,-866 963.076,-866 963.076,-902"/>
<text text-anchor="middle" x="894.076" y="-881.2" font-family="Courier,monospace" font-size="11.00">AppServiceProvider</text>
</g>
<!-- \\App\\Providers\\AppServiceProvider&#45;&gt;ServiceProvider -->
<g id="edge16" class="edge"><title>\\App\\Providers\\AppServiceProvider&#45;&gt;ServiceProvider</title>
<path fill="none" stroke="black" d="M824.963,-881.614C807.981,-877.652 791.407,-870.268 780.076,-857 685.99,-746.83 822.292,-318.415 729.684,-207 722.533,-198.397 712.972,-192.372 702.574,-188.181"/>
<polygon fill="none" stroke="black" points="703.431,-184.774 692.836,-184.827 701.151,-191.393 703.431,-184.774"/>
</g>
<!-- \\App\\Providers\\PhpRedisClientServiceProvider -->
<g id="node15" class="node"><title>\\App\\Providers\\PhpRedisClientServiceProvider</title>
<polygon fill="none" stroke="black" points="1000.08,-1010 788.076,-1010 788.076,-974 1000.08,-974 1000.08,-1010"/>
<text text-anchor="middle" x="894.076" y="-989.2" font-family="Courier,monospace" font-size="11.00">PhpRedisClientServiceProvider</text>
</g>
<!-- \\App\\Providers\\PhpRedisClientServiceProvider&#45;&gt;ServiceProvider -->
<g id="edge19" class="edge"><title>\\App\\Providers\\PhpRedisClientServiceProvider&#45;&gt;ServiceProvider</title>
<path fill="none" stroke="black" d="M789.142,-973.696C785.854,-971.123 782.809,-968.236 780.076,-965 671.151,-836.026 836.879,-337.416 729.684,-207 722.581,-198.358 713.044,-192.312 702.656,-188.113"/>
<polygon fill="none" stroke="black" points="703.518,-184.708 692.923,-184.755 701.235,-191.325 703.518,-184.708"/>
</g>
<!-- \\App\\Providers\\RouteServiceProvider -->
<g id="node16" class="node"><title>\\App\\Providers\\RouteServiceProvider</title>
<polygon fill="none" stroke="black" points="970.076,-848 818.076,-848 818.076,-812 970.076,-812 970.076,-848"/>
<text text-anchor="middle" x="894.076" y="-827.2" font-family="Courier,monospace" font-size="11.00">RouteServiceProvider</text>
</g>
<!-- RouteServiceProvider -->
<g id="node55" class="node"><title>RouteServiceProvider</title>
<ellipse fill="none" stroke="black" cx="627.684" cy="-126" rx="88.2844" ry="18"/>
<text text-anchor="middle" x="627.684" y="-122.3" font-family="Times,serif" font-size="14.00">RouteServiceProvider</text>
</g>
<!-- \\App\\Providers\\RouteServiceProvider&#45;&gt;RouteServiceProvider -->
<g id="edge27" class="edge"><title>\\App\\Providers\\RouteServiceProvider&#45;&gt;RouteServiceProvider</title>
<path fill="none" stroke="black" d="M817.81,-823.665C803.369,-819.016 789.754,-811.619 780.076,-800 687.778,-689.191 821.887,-263.888 729.684,-153 725.162,-147.561 719.676,-143.153 713.625,-139.587"/>
<polygon fill="none" stroke="black" points="714.907,-136.314 704.401,-134.944 711.759,-142.566 714.907,-136.314"/>
</g>
<!-- \\App\\Listeners\\WebsiteUriSaved -->
<g id="node17" class="node"><title>\\App\\Listeners\\WebsiteUriSaved</title>
<polygon fill="none" stroke="black" points="953.076,-768 835.076,-768 835.076,-732 953.076,-732 953.076,-768"/>
<text text-anchor="middle" x="894.076" y="-747.2" font-family="Courier,monospace" font-size="11.00">WebsiteUriSaved</text>
</g>
<!-- \\App\\Events\\WebsiteUriSaved -->
<g id="node18" class="node"><title>\\App\\Events\\WebsiteUriSaved</title>
<polygon fill="none" stroke="black" points="953.076,-688 835.076,-688 835.076,-652 953.076,-652 953.076,-688"/>
<text text-anchor="middle" x="894.076" y="-667.2" font-family="Courier,monospace" font-size="11.00">WebsiteUriSaved</text>
</g>
<!-- \\App\\Exceptions\\Handler -->
<g id="node19" class="node"><title>\\App\\Exceptions\\Handler</title>
<polygon fill="none" stroke="black" points="926.076,-528 862.076,-528 862.076,-492 926.076,-492 926.076,-528"/>
<text text-anchor="middle" x="894.076" y="-507.2" font-family="Courier,monospace" font-size="11.00">Handler</text>
</g>
<!-- Handler -->
<g id="node54" class="node"><title>Handler</title>
<ellipse fill="none" stroke="black" cx="627.684" cy="-72" rx="38.9931" ry="18"/>
<text text-anchor="middle" x="627.684" y="-68.3" font-family="Times,serif" font-size="14.00">Handler</text>
</g>
<!-- \\App\\Exceptions\\Handler&#45;&gt;Handler -->
<g id="edge22" class="edge"><title>\\App\\Exceptions\\Handler&#45;&gt;Handler</title>
<path fill="none" stroke="black" d="M862.064,-513.039C836.332,-513.706 800.728,-510.006 780.076,-488 660.777,-360.879 844.532,-230.157 729.684,-99 716.508,-83.9526 695.961,-76.8568 676.83,-73.6551"/>
<polygon fill="none" stroke="black" points="677.083,-70.1575 666.704,-72.2826 676.143,-77.0941 677.083,-70.1575"/>
</g>
<!-- \\App\\Console\\Kernel -->
<g id="node20" class="node"><title>\\App\\Console\\Kernel</title>
<polygon fill="none" stroke="black" points="922.576,-608 865.576,-608 865.576,-572 922.576,-572 922.576,-608"/>
<text text-anchor="middle" x="894.076" y="-587.2" font-family="Courier,monospace" font-size="11.00">Kernel</text>
</g>
<!-- \\App\\Console\\Kernel&#45;&gt;Kernel -->
<g id="edge28" class="edge"><title>\\App\\Console\\Kernel&#45;&gt;Kernel</title>
<path fill="none" stroke="black" d="M865.483,-593.858C838.724,-599.203 799.419,-611.645 780.076,-640 706.873,-747.308 771.057,-1684.87 729.684,-1808 713.333,-1856.66 675.505,-1903.81 651.068,-1930.81"/>
<polygon fill="none" stroke="black" points="648.46,-1928.47 644.256,-1938.2 653.607,-1933.22 648.46,-1928.47"/>
</g>
<!-- \\App\\Website -->
<g id="node21" class="node"><title>\\App\\Website</title>
<polygon fill="none" stroke="black" points="926.076,-474 862.076,-474 862.076,-438 926.076,-438 926.076,-474"/>
<text text-anchor="middle" x="894.076" y="-453.2" font-family="Courier,monospace" font-size="11.00">Website</text>
</g>
<!-- Model -->
<g id="node52" class="node"><title>Model</title>
<ellipse fill="none" stroke="black" cx="627.684" cy="-18" rx="34.394" ry="18"/>
<text text-anchor="middle" x="627.684" y="-14.3" font-family="Times,serif" font-size="14.00">Model</text>
</g>
<!-- \\App\\Website&#45;&gt;Model -->
<g id="edge10" class="edge"><title>\\App\\Website&#45;&gt;Model</title>
<path fill="none" stroke="black" d="M861.93,-457.519C836.115,-456.955 800.463,-451.627 780.076,-429 664.856,-301.121 843.188,-174.405 729.684,-45 715.452,-28.7744 692.65,-21.7968 672.311,-18.9767"/>
<polygon fill="none" stroke="black" points="672.586,-15.4861 662.265,-17.8788 671.826,-22.4446 672.586,-15.4861"/>
</g>
<!-- \\App\\WebsiteUri -->
<g id="node22" class="node"><title>\\App\\WebsiteUri</title>
<polygon fill="none" stroke="black" points="936.076,-420 852.076,-420 852.076,-384 936.076,-384 936.076,-420"/>
<text text-anchor="middle" x="894.076" y="-399.2" font-family="Courier,monospace" font-size="11.00">WebsiteUri</text>
</g>
<!-- \\App\\WebsiteUri&#45;&gt;Model -->
<g id="edge20" class="edge"><title>\\App\\WebsiteUri&#45;&gt;Model</title>
<path fill="none" stroke="black" d="M890.324,-383.926C880.425,-325.354 841.118,-139.126 729.684,-45 713.626,-31.4358 691.426,-24.6185 671.928,-21.2196"/>
<polygon fill="none" stroke="black" points="672.433,-17.7563 662.025,-19.7362 671.396,-24.6791 672.433,-17.7563"/>
</g>
<!-- \\WebsiteCrawler\\Crawler\\HtmlCrawler -->
<g id="node23" class="node"><title>\\WebsiteCrawler\\Crawler\\HtmlCrawler</title>
<polygon fill="none" stroke="black" points="673.184,-3100 582.184,-3100 582.184,-3064 673.184,-3064 673.184,-3100"/>
<text text-anchor="middle" x="627.684" y="-3079.2" font-family="Courier,monospace" font-size="11.00">HtmlCrawler</text>
</g>
<!-- \\WebsiteCrawler\\Crawler\\CrawlerInterface -->
<g id="node24" class="node"><title>\\WebsiteCrawler\\Crawler\\CrawlerInterface</title>
<polygon fill="none" stroke="black" points="460.792,-3100 335.792,-3100 335.792,-3064 460.792,-3064 460.792,-3100"/>
<text text-anchor="middle" x="398.292" y="-3079.2" font-family="Courier,monospace" font-size="11.00">CrawlerInterface</text>
</g>
<!-- \\WebsiteCrawler\\Crawler\\HtmlCrawler&#45;&gt;\\WebsiteCrawler\\Crawler\\CrawlerInterface -->
<g id="edge26" class="edge"><title>\\WebsiteCrawler\\Crawler\\HtmlCrawler&#45;&gt;\\WebsiteCrawler\\Crawler\\CrawlerInterface</title>
<path fill="none" stroke="black" stroke-dasharray="1,5" d="M582.03,-3082C550.464,-3082 507.47,-3082 471.116,-3082"/>
<polygon fill="none" stroke="black" points="471.053,-3078.5 461.053,-3082 471.053,-3085.5 471.053,-3078.5"/>
</g>
<!-- \\WebsiteCrawler\\Crawler\\CrawlerTrait -->
<g id="node25" class="node"><title>\\WebsiteCrawler\\Crawler\\CrawlerTrait</title>
<polygon fill="none" stroke="black" points="676.684,-3046 578.684,-3046 578.684,-3010 676.684,-3010 676.684,-3046"/>
<text text-anchor="middle" x="627.684" y="-3025.2" font-family="Courier,monospace" font-size="11.00">CrawlerTrait</text>
</g>
<!-- \\WebsiteCrawler\\Exception\\LogicException -->
<g id="node26" class="node"><title>\\WebsiteCrawler\\Exception\\LogicException</title>
<polygon fill="none" stroke="black" points="453.792,-2966 342.792,-2966 342.792,-2930 453.792,-2930 453.792,-2966"/>
<text text-anchor="middle" x="398.292" y="-2945.2" font-family="Courier,monospace" font-size="11.00">LogicException</text>
</g>
<!-- \\WebsiteCrawler\\Exception\\Exception -->
<g id="node28" class="node"><title>\\WebsiteCrawler\\Exception\\Exception</title>
<polygon fill="none" stroke="black" points="257.292,-2966 180.292,-2966 180.292,-2930 257.292,-2930 257.292,-2966"/>
<text text-anchor="middle" x="218.792" y="-2945.2" font-family="Courier,monospace" font-size="11.00">Exception</text>
</g>
<!-- \\WebsiteCrawler\\Exception\\LogicException&#45;&gt;\\WebsiteCrawler\\Exception\\Exception -->
<g id="edge3" class="edge"><title>\\WebsiteCrawler\\Exception\\LogicException&#45;&gt;\\WebsiteCrawler\\Exception\\Exception</title>
<path fill="none" stroke="black" d="M342.588,-2948C318.649,-2948 290.815,-2948 267.706,-2948"/>
<polygon fill="none" stroke="black" points="267.451,-2944.5 257.451,-2948 267.451,-2951.5 267.451,-2944.5"/>
</g>
<!-- \\WebsiteCrawler\\Exception\\InvalidWalkerException -->
<g id="node27" class="node"><title>\\WebsiteCrawler\\Exception\\InvalidWalkerException</title>
<polygon fill="none" stroke="black" points="710.184,-2966 545.184,-2966 545.184,-2930 710.184,-2930 710.184,-2966"/>
<text text-anchor="middle" x="627.684" y="-2945.2" font-family="Courier,monospace" font-size="11.00">InvalidWalkerException</text>
</g>
<!-- \\WebsiteCrawler\\Exception\\InvalidWalkerException&#45;&gt;\\WebsiteCrawler\\Exception\\LogicException -->
<g id="edge5" class="edge"><title>\\WebsiteCrawler\\Exception\\InvalidWalkerException&#45;&gt;\\WebsiteCrawler\\Exception\\LogicException</title>
<path fill="none" stroke="black" d="M544.911,-2948C518.389,-2948 489.345,-2948 464.221,-2948"/>
<polygon fill="none" stroke="black" points="464.076,-2944.5 454.076,-2948 464.076,-2951.5 464.076,-2944.5"/>
</g>
<!-- Exception -->
<g id="node47" class="node"><title>Exception</title>
<ellipse fill="none" stroke="black" cx="62.1459" cy="-2948" rx="46.2923" ry="18"/>
<text text-anchor="middle" x="62.1459" y="-2944.3" font-family="Times,serif" font-size="14.00" fill="gray">Exception</text>
</g>
<!-- \\WebsiteCrawler\\Exception\\Exception&#45;&gt;Exception -->
<g id="edge12" class="edge"><title>\\WebsiteCrawler\\Exception\\Exception&#45;&gt;Exception</title>
<path fill="none" stroke="black" d="M179.961,-2948C161.526,-2948 138.996,-2948 118.659,-2948"/>
<polygon fill="none" stroke="black" points="118.569,-2944.5 108.569,-2948 118.569,-2951.5 118.569,-2944.5"/>
</g>
<!-- \\WebsiteCrawler\\Executor\\SingleUriExecutor -->
<g id="node29" class="node"><title>\\WebsiteCrawler\\Executor\\SingleUriExecutor</title>
<polygon fill="none" stroke="black" points="693.184,-2564 562.184,-2564 562.184,-2528 693.184,-2528 693.184,-2564"/>
<text text-anchor="middle" x="627.684" y="-2543.2" font-family="Courier,monospace" font-size="11.00">SingleUriExecutor</text>
</g>
<!-- \\WebsiteCrawler\\Executor\\SingleUriExecutor&#45;&gt;\\WebsiteCrawler\\Executor\\ExecutorInterface -->
<g id="edge21" class="edge"><title>\\WebsiteCrawler\\Executor\\SingleUriExecutor&#45;&gt;\\WebsiteCrawler\\Executor\\ExecutorInterface</title>
<path fill="none" stroke="black" stroke-dasharray="1,5" d="M562.131,-2530.67C534.646,-2524.14 502.418,-2516.49 473.918,-2509.72"/>
<polygon fill="none" stroke="black" points="474.545,-2506.27 464.006,-2507.37 472.927,-2513.08 474.545,-2506.27"/>
</g>
<!-- \\WebsiteCrawler\\Executor\\RecursiveUriExecutor -->
<g id="node30" class="node"><title>\\WebsiteCrawler\\Executor\\RecursiveUriExecutor</title>
<polygon fill="none" stroke="black" points="703.684,-2510 551.684,-2510 551.684,-2474 703.684,-2474 703.684,-2510"/>
<text text-anchor="middle" x="627.684" y="-2489.2" font-family="Courier,monospace" font-size="11.00">RecursiveUriExecutor</text>
</g>
<!-- \\WebsiteCrawler\\Executor\\RecursiveUriExecutor&#45;&gt;\\WebsiteCrawler\\Executor\\ExecutorInterface -->
<g id="edge29" class="edge"><title>\\WebsiteCrawler\\Executor\\RecursiveUriExecutor&#45;&gt;\\WebsiteCrawler\\Executor\\ExecutorInterface</title>
<path fill="none" stroke="black" stroke-dasharray="1,5" d="M551.597,-2492C526.697,-2492 498.994,-2492 474.113,-2492"/>
<polygon fill="none" stroke="black" points="474.005,-2488.5 464.005,-2492 474.005,-2495.5 474.005,-2488.5"/>
</g>
<!-- \\WebsiteCrawler\\Executor\\CrossDomainRequestTrait -->
<g id="node32" class="node"><title>\\WebsiteCrawler\\Executor\\CrossDomainRequestTrait</title>
<polygon fill="none" stroke="black" points="713.684,-2456 541.684,-2456 541.684,-2420 713.684,-2420 713.684,-2456"/>
<text text-anchor="middle" x="627.684" y="-2435.2" font-family="Courier,monospace" font-size="11.00">CrossDomainRequestTrait</text>
</g>
<!-- \\WebsiteCrawler\\Filter\\UriFilter -->
<g id="node33" class="node"><title>\\WebsiteCrawler\\Filter\\UriFilter</title>
<polygon fill="none" stroke="black" points="666.184,-2886 589.184,-2886 589.184,-2850 666.184,-2850 666.184,-2886"/>
<text text-anchor="middle" x="627.684" y="-2865.2" font-family="Courier,monospace" font-size="11.00">UriFilter</text>
</g>
<!-- \\WebsiteCrawler\\Filter\\FilterInterface -->
<g id="node35" class="node"><title>\\WebsiteCrawler\\Filter\\FilterInterface</title>
<polygon fill="none" stroke="black" points="457.292,-2859 339.292,-2859 339.292,-2823 457.292,-2823 457.292,-2859"/>
<text text-anchor="middle" x="398.292" y="-2838.2" font-family="Courier,monospace" font-size="11.00">FilterInterface</text>
</g>
<!-- \\WebsiteCrawler\\Filter\\UriFilter&#45;&gt;\\WebsiteCrawler\\Filter\\FilterInterface -->
<g id="edge2" class="edge"><title>\\WebsiteCrawler\\Filter\\UriFilter&#45;&gt;\\WebsiteCrawler\\Filter\\FilterInterface</title>
<path fill="none" stroke="black" stroke-dasharray="1,5" d="M589.135,-2863.54C556.109,-2859.62 507.218,-2853.81 467.324,-2849.08"/>
<polygon fill="none" stroke="black" points="467.733,-2845.6 457.39,-2847.9 466.907,-2852.55 467.733,-2845.6"/>
</g>
<!-- \\WebsiteCrawler\\Filter\\ImageFilter -->
<g id="node34" class="node"><title>\\WebsiteCrawler\\Filter\\ImageFilter</title>
<polygon fill="none" stroke="black" points="673.184,-2832 582.184,-2832 582.184,-2796 673.184,-2796 673.184,-2832"/>
<text text-anchor="middle" x="627.684" y="-2811.2" font-family="Courier,monospace" font-size="11.00">ImageFilter</text>
</g>
<!-- \\WebsiteCrawler\\Filter\\ImageFilter&#45;&gt;\\WebsiteCrawler\\Filter\\FilterInterface -->
<g id="edge25" class="edge"><title>\\WebsiteCrawler\\Filter\\ImageFilter&#45;&gt;\\WebsiteCrawler\\Filter\\FilterInterface</title>
<path fill="none" stroke="black" stroke-dasharray="1,5" d="M582.03,-2819.3C549.518,-2823.16 504.883,-2828.46 467.866,-2832.86"/>
<polygon fill="none" stroke="black" points="467.161,-2829.42 457.644,-2834.07 467.987,-2836.37 467.161,-2829.42"/>
</g>
<!-- \\WebsiteCrawler\\Filter\\FilterTrait -->
<g id="node36" class="node"><title>\\WebsiteCrawler\\Filter\\FilterTrait</title>
<polygon fill="none" stroke="black" points="673.184,-2778 582.184,-2778 582.184,-2742 673.184,-2742 673.184,-2778"/>
<text text-anchor="middle" x="627.684" y="-2757.2" font-family="Courier,monospace" font-size="11.00">FilterTrait</text>
</g>
<!-- \\WebsiteCrawler\\Processor\\EchoProcessor -->
<g id="node37" class="node"><title>\\WebsiteCrawler\\Processor\\EchoProcessor</title>
<polygon fill="none" stroke="black" points="679.684,-2376 575.684,-2376 575.684,-2340 679.684,-2340 679.684,-2376"/>
<text text-anchor="middle" x="627.684" y="-2355.2" font-family="Courier,monospace" font-size="11.00">EchoProcessor</text>
</g>
<!-- \\WebsiteCrawler\\Processor\\EchoProcessor&#45;&gt;\\WebsiteCrawler\\Processor\\ProcessorInterface -->
<g id="edge4" class="edge"><title>\\WebsiteCrawler\\Processor\\EchoProcessor&#45;&gt;\\WebsiteCrawler\\Processor\\ProcessorInterface</title>
<path fill="none" stroke="black" stroke-dasharray="1,5" d="M575.653,-2345.88C546.698,-2339.01 509.858,-2330.26 477.344,-2322.54"/>
<polygon fill="none" stroke="black" points="477.944,-2319.08 467.406,-2320.18 476.327,-2325.89 477.944,-2319.08"/>
</g>
<!-- \\WebsiteCrawler\\Processor\\ProcessorTrait -->
<g id="node39" class="node"><title>\\WebsiteCrawler\\Processor\\ProcessorTrait</title>
<polygon fill="none" stroke="black" points="683.184,-2322 572.184,-2322 572.184,-2286 683.184,-2286 683.184,-2322"/>
<text text-anchor="middle" x="627.684" y="-2301.2" font-family="Courier,monospace" font-size="11.00">ProcessorTrait</text>
</g>
<!-- \\WebsiteCrawler\\UriMap\\InMemoryUriMap -->
<g id="node40" class="node"><title>\\WebsiteCrawler\\UriMap\\InMemoryUriMap</title>
<polygon fill="none" stroke="black" points="683.184,-2698 572.184,-2698 572.184,-2662 683.184,-2662 683.184,-2698"/>
<text text-anchor="middle" x="627.684" y="-2677.2" font-family="Courier,monospace" font-size="11.00">InMemoryUriMap</text>
</g>
<!-- \\WebsiteCrawler\\UriMap\\UriMapInterface -->
<g id="node42" class="node"><title>\\WebsiteCrawler\\UriMap\\UriMapInterface</title>
<polygon fill="none" stroke="black" points="457.292,-2671 339.292,-2671 339.292,-2635 457.292,-2635 457.292,-2671"/>
<text text-anchor="middle" x="398.292" y="-2650.2" font-family="Courier,monospace" font-size="11.00">UriMapInterface</text>
</g>
<!-- \\WebsiteCrawler\\UriMap\\InMemoryUriMap&#45;&gt;\\WebsiteCrawler\\UriMap\\UriMapInterface -->
<g id="edge23" class="edge"><title>\\WebsiteCrawler\\UriMap\\InMemoryUriMap&#45;&gt;\\WebsiteCrawler\\UriMap\\UriMapInterface</title>
<path fill="none" stroke="black" stroke-dasharray="1,5" d="M571.929,-2673.5C540.606,-2669.78 501.035,-2665.08 467.682,-2661.12"/>
<polygon fill="none" stroke="black" points="467.89,-2657.62 457.547,-2659.92 467.065,-2664.57 467.89,-2657.62"/>
</g>
<!-- \\WebsiteCrawler\\UriMap\\RedisLockingUriMap -->
<g id="node41" class="node"><title>\\WebsiteCrawler\\UriMap\\RedisLockingUriMap</title>
<polygon fill="none" stroke="black" points="696.684,-2644 558.684,-2644 558.684,-2608 696.684,-2608 696.684,-2644"/>
<text text-anchor="middle" x="627.684" y="-2623.2" font-family="Courier,monospace" font-size="11.00">RedisLockingUriMap</text>
</g>
<!-- \\WebsiteCrawler\\UriMap\\RedisLockingUriMap&#45;&gt;\\WebsiteCrawler\\UriMap\\UriMapInterface -->
<g id="edge24" class="edge"><title>\\WebsiteCrawler\\UriMap\\RedisLockingUriMap&#45;&gt;\\WebsiteCrawler\\UriMap\\UriMapInterface</title>
<path fill="none" stroke="black" stroke-dasharray="1,5" d="M558.459,-2634.1C529.671,-2637.52 496.227,-2641.49 467.447,-2644.91"/>
<polygon fill="none" stroke="black" points="466.995,-2641.44 457.477,-2646.09 467.82,-2648.39 466.995,-2641.44"/>
</g>
<!-- \\WebsiteCrawler\\Client -->
<g id="node44" class="node"><title>\\WebsiteCrawler\\Client</title>
<polygon fill="none" stroke="black" points="656.184,-2214 599.184,-2214 599.184,-2178 656.184,-2178 656.184,-2214"/>
<text text-anchor="middle" x="627.684" y="-2193.2" font-family="Courier,monospace" font-size="11.00">Client</text>
</g>
<!-- \\WebsiteCrawler\\Result -->
<g id="node45" class="node"><title>\\WebsiteCrawler\\Result</title>
<polygon fill="none" stroke="black" points="656.184,-2160 599.184,-2160 599.184,-2124 656.184,-2124 656.184,-2160"/>
<text text-anchor="middle" x="627.684" y="-2139.2" font-family="Courier,monospace" font-size="11.00">Result</text>
</g>
</g>
</svg>
